# xmcd CD database file
#
# Track frame offsets:
#	183
#	36868
#	58618
#	77425
#	106845
#	136473
#	155183
#	175568
#	206680
#	232880
#
# Disc length: 3564 seconds
#
# Revision: 0
# Processed by: cddbd v1.5PL3 Copyright (c) Steve Scherf et al.
# Submitted via: CDex 1.50
#
DISCID=7a0dea0a
DTITLE=Paul Hertel - Enchanted Locations
DYEAR=1994
DGENRE=New Age
TTITLE0=Cathedral Of The Holy Sacrament
TTITLE1=Hidden Roads
TTITLE2=Coasts Of Atlantis
TTITLE3=Hollow Of The Golden Snake
TTITLE4=Lake Of Angels
TTITLE5=Place Of The Appearance
TTITLE6=Garden Of Magic Incidents
TTITLE7=Unearthly Occurences
TTITLE8=The Secret Path
TTITLE9=Temple Of Mystic Love
EXTD=YEAR: 1994
EXTT0=
EXTT1=
EXTT2=
EXTT3=
EXTT4=
EXTT5=
EXTT6=
EXTT7=
EXTT8=
EXTT9=
PLAYORDER=
